<svg xmlns="http://www.w3.org/2000/svg" xmlns:xlink="http://www.w3.org/1999/xlink" width="512" height="512" viewBox="0 0 512 512">
  <defs>
    <clipPath id="clip-VConSol_Business_512x512">
      <rect width="512" height="512"/>
    </clipPath>
  </defs>
  <g id="VConSol_Business_512x512" data-name="VConSol Business  512x512" clip-path="url(#clip-VConSol_Business_512x512)">
    <g id="Group_18" data-name="Group 18" transform="translate(27.944 57.947)">
      <path id="Union_5" data-name="Union 5" d="M152.494,258.463A50.151,50.151,0,0,1,107.016,229.5L0,0C38.254,44.09,89.583,74.43,152.556,90.174l2.836.678-.013.015q7.889,1.908,16.03,3.513C203.793,99.6,276.574,107.392,360.723,91a608.649,608.649,0,0,1-108.461,25.315L201.354,225.489a50.045,50.045,0,0,1-9.16,13.437,49.87,49.87,0,0,1-8.22,8.41,50.379,50.379,0,0,1-10.315,6.421,49.734,49.734,0,0,1-21.16,4.711Z" transform="translate(35.381 134.776)" fill="#55adc3"/>
      <path id="Subtraction_5" data-name="Subtraction 5" d="M292.482,227.008h-.017c-59.323,0-112.069-10.1-156.773-30.019A279.037,279.037,0,0,1,98.42,176.91a260.594,260.594,0,0,1-34.66-26.64C58.208,145.2,52.8,139.811,47.7,134.25c-5.234-5.7-10.3-11.737-15.064-17.947-4.876-6.359-9.57-13.078-13.951-19.971C14.2,89.281,9.917,81.849,5.959,74.243H7.368c-.491-.92-.964-1.821-1.409-2.673H5.951a50.145,50.145,0,0,1,91.7-40.552l25.287,54.23c11.226,16.43,38.715,47.937,96.692,74.356L252.887,88.3a67.546,67.546,0,0,0,100.881,16.685c.818-.3,1.641-.622,2.448-.958l-40.1,86c41.513,8.474,88.145,13.123,138.6,13.814a.359.359,0,0,1-.054.018c-1.187.371-5.61,1.726-12.7,3.6-7.493,1.982-19.608,4.973-34.777,7.965-17.049,3.363-34.4,6.048-51.57,7.966a570.261,570.261,0,0,1-63.132,3.621Z" transform="translate(0 0)" fill="#55adc3"/>
      <circle id="Ellipse_6" data-name="Ellipse 6" cx="41.454" cy="41.454" r="41.454" transform="translate(288.473 5.75)" fill="#1a1a1a"/>
      <path id="Path_4" data-name="Path 4" d="M3001.114,1700.319l-43.524,92.336-5.934-108.529s.711.263,2.4.964a360.632,360.632,0,0,0,47.055,15.229Z" transform="translate(-2812.077 -1475.068)" fill="#3b8596"/>
    </g>
  </g>
</svg>
